<svg  version="1.1" xmlns="http://www.w3.org/2000/svg" xmlns:xlink="http://www.w3.org/1999/xlink" x="0px" y="0px"
	 viewBox="0 0 650.29 649.92" style="enable-background:new 0 0 650.29 649.92;" xml:space="preserve">
	<path class="brand-logo" d="M16.69,620.74c-21.6-200.7,9-385.2-16.2-588.6c54-9,181.8-6.3,244.8-3.6c-7.2,134.1-14.4,340.2-3.6,447.3
		c23.4,6.3,334.8-0.9,381.6,0.9c-7.2,46.8-7.2,104.4-18,147.6C522.49,617.14,104.89,622.54,16.69,620.74z M346.09,415.54
		c0-77.4-18-178.2-16.2-383.4c54-9,169.2-6.3,232.2-3.6c-27,144.9-14.4,216-14.4,242.1c23.4,6.3,55.8-0.9,102.6,0.9
		c-7.2,46.8-7.2,104.4-18,147.6C549.49,411.94,434.29,417.34,346.09,415.54z"/>
</svg>
