<?xml version="1.0" encoding="utf-8"?>
<!-- Generator: Adobe Illustrator 24.0.1, SVG Export Plug-In . SVG Version: 6.00 Build 0)  -->
<svg version="1.1" xmlns="http://www.w3.org/2000/svg" xmlns:xlink="http://www.w3.org/1999/xlink" x="0px" y="0px"
	 viewBox="0 0 512 512" style="enable-background:new 0 0 512 512;" xml:space="preserve">

<g id="Loading" fill="#1e1832">
			<path d="M353,58.05c-93,0-97,34-97,34s-4-34-97-34c-68,0-82,57-159,2c0,0,11.14,34.55,26.55,73.22
				C42.96,174.46,83,234.05,126,257.05c27.99,14.97,52.36,18.71,68.13,19.17c0,27.83-66.13,21.08-66.13,87.83c0,114,128,114,128,114
				s128,0,128-114c0-66.75-66.13-60-66.13-87.83c15.77-0.46,40.14-4.2,68.13-19.17c43-23,83.04-82.6,99.45-123.78
				C500.86,94.61,512,60.05,512,60.05C435,115.05,421,58.05,353,58.05z M256,193.05c27.61,0,50,44.77,50,100c0,46-100,47-100,0
				C206,237.83,228.39,193.05,256,193.05z M144.29,220.01c-38.67-8.64-65.16-37.43-59.15-64.29c6-26.87,42.22-41.64,80.89-33
				c38.67,8.64,65.16,37.43,59.15,64.29C219.18,213.88,182.96,228.65,144.29,220.01z M356,384.05c0,27.61-44.77,50-100,50
				s-100-22.39-100-50c0-27.61,44.77-50,100-50S356,356.44,356,384.05z M367.03,220.01c-38.67,8.64-74.89-6.13-80.89-33
				c-6-26.87,20.48-55.65,59.15-64.29c38.67-8.64,74.89,6.13,80.89,33C432.18,182.59,405.7,211.37,367.03,220.01z"/>
			<path d="M296,287.34c0-44.18-17.91-80-40-80s-40,35.82-40,80C216,312.05,296,307.05,296,287.34z"/>
			<path class="st1" d="M162.23,43.5c68.92,0,92.31,21.37,93.91,22.91c1.6-1.54,24.99-22.91,93.91-22.91
				c62,0,76.97,24.94,103.36,25.98C425.35,26.94,368.96,0,255.73,0C142.48,0,86.21,26.95,58.3,69.5
				C85.05,68.8,99.78,43.5,162.23,43.5z"/>
			<path class="st1" d="M457.54,214c-49.32,62.86-104.26,73.35-107.36,73.52c2.85,0.54,50.36,14.47,50.36,83.48
				c0,86.91-84.82,122.42-144.31,122.5c0,0,0,0,0,0c-0.03,0-0.06,0-0.09,0s-0.06,0-0.09,0c0,0,0,0,0,0
				c-59.49-0.07-144.31-35.59-144.31-122.5c0-69.01,47.52-82.94,50.36-83.48c-3.1-0.17-58.04-10.65-107.36-73.52
				c-8.37-10.67-16.12-22.57-23.23-35.06C30.72,200.17,31,222.38,31,245.05C31,392.05,106.73,512,255.73,512S481,392.05,481,245.05
				c0-22.49,0.26-44.52-0.52-65.6C473.45,191.76,465.8,203.47,457.54,214z"/>
</g>
</svg>
